<svg width="239" height="71" viewBox="0 0 239 71" fill="none" xmlns="http://www.w3.org/2000/svg">
<path d="M30.9378 32.6928L2.74224 46.7836V17.7058L30.9378 3.615V32.6928ZM61.4933 46.7836L33.2978 32.6928V3.615L61.4933 17.7058V46.7836ZM33.2978 64.6748L61.4933 50.584V53.8294L33.2978 67.9193V64.6748ZM2.74132 50.584L30.9378 64.6748V67.9193L2.74224 53.8294L2.74132 50.584ZM12.7227 44.4192L13.4 44.7121L5.81331 49.4097L4.19466 48.6838L12.7227 44.4192ZM22.7155 39.4287L30.0729 43.1014L22.7155 46.7758L15.3591 43.1014L22.7155 39.4287ZM42.6942 46.7749L35.3378 43.1022L42.1075 39.7226L49.464 43.3952L42.6942 46.7749ZM53.272 52.0678L45.3271 48.097L52.0969 44.713L60.0409 48.6838L53.272 52.0678ZM43.2818 57.0583L35.3378 53.0875L42.6951 49.4097L50.6391 53.3804L43.2818 57.0583ZM25.3485 48.097L32.7049 44.4192L40.0622 48.097L32.7049 51.774L25.3485 48.097ZM32.1182 34.7312L39.4747 38.4091L32.7049 41.7931L25.3485 38.1153L32.1182 34.7312ZM0.473796 54.9674C0.504018 55.0348 0.54047 55.0986 0.582248 55.1589C0.617804 55.2255 0.66131 55.2884 0.70931 55.347C0.768865 55.4047 0.833783 55.4565 0.904894 55.5C0.94756 55.5381 31.592 70.8704 31.592 70.8704C31.9351 71.0328 32.3005 71.0327 32.6107 70.8782L63.1947 55.6053C63.3107 55.5272 63.4212 55.4412 63.5253 55.3478C63.6142 55.2271 63.6925 55.0996 63.7609 54.9674C63.7867 54.8866 63.8035 54.8029 63.8107 54.7186C63.8258 54.6645 63.8445 16.9795 63.8445 16.9795C63.8267 16.8401 63.7988 16.7023 63.7609 16.567C63.6926 16.4343 63.6138 16.3071 63.5253 16.1869C63.4658 16.1295 63.4002 16.0787 63.3298 16.0352C63.288 15.9962 32.6436 0.663887 32.6436 0.663887C32.3004 0.501474 31.9351 0.501641 31.6249 0.656953L1.04091 15.9291C0.9245 16.0073 0.81367 16.0932 0.70931 16.1869C0.660672 16.2455 0.618135 16.3092 0.582248 16.3763C0.54047 16.4357 0.503997 16.5004 0.474664 16.567C0.447997 16.6477 0.431991 16.7322 0.423991 16.8166C0.40888 16.8698 0.391113 54.5548 0.391113 54.5548C0.432002 54.8033 0.448886 54.8866 0.474664 54.9674H0.473796Z" fill="black"/>
<path d="M3.6001 48.6261L32.0445 34.4261L59.9423 48.6261L32.0445 62.8261L3.6001 48.6261Z" fill="#F1F1F1"/>
<path d="M3.6001 48.6261L32.0445 34.4261C32.0445 34.4261 18.9157 46.9878 32.0445 62.8261C45.1734 78.6645 3.6001 48.6261 3.6001 48.6261Z" fill="url(#paint0_linear)"/>
<path d="M78.736 26.192C77.5733 26.192 76.5227 25.9413 75.584 25.44C74.656 24.9387 73.9253 24.2507 73.392 23.376C72.8693 22.4907 72.608 21.4987 72.608 20.4C72.608 19.3013 72.8693 18.3147 73.392 17.44C73.9253 16.5547 74.656 15.8613 75.584 15.36C76.5227 14.8587 77.5733 14.608 78.736 14.608C79.8987 14.608 80.944 14.8587 81.872 15.36C82.8 15.8613 83.5307 16.5547 84.064 17.44C84.5973 18.3147 84.864 19.3013 84.864 20.4C84.864 21.4987 84.5973 22.4907 84.064 23.376C83.5307 24.2507 82.8 24.9387 81.872 25.44C80.944 25.9413 79.8987 26.192 78.736 26.192ZM78.736 23.984C79.3973 23.984 79.9947 23.8347 80.528 23.536C81.0613 23.2267 81.4773 22.8 81.776 22.256C82.0853 21.712 82.24 21.0933 82.24 20.4C82.24 19.7067 82.0853 19.088 81.776 18.544C81.4773 18 81.0613 17.5787 80.528 17.28C79.9947 16.9707 79.3973 16.816 78.736 16.816C78.0747 16.816 77.4773 16.9707 76.944 17.28C76.4107 17.5787 75.9893 18 75.68 18.544C75.3813 19.088 75.232 19.7067 75.232 20.4C75.232 21.0933 75.3813 21.712 75.68 22.256C75.9893 22.8 76.4107 23.2267 76.944 23.536C77.4773 23.8347 78.0747 23.984 78.736 23.984ZM92.2048 26.192C91.0421 26.192 89.9914 25.9413 89.0528 25.44C88.1248 24.9387 87.3941 24.2507 86.8608 23.376C86.3381 22.4907 86.0768 21.4987 86.0768 20.4C86.0768 19.3013 86.3381 18.3147 86.8608 17.44C87.3941 16.5547 88.1248 15.8613 89.0528 15.36C89.9914 14.8587 91.0421 14.608 92.2048 14.608C93.3674 14.608 94.4128 14.8587 95.3408 15.36C96.2688 15.8613 96.9994 16.5547 97.5328 17.44C98.0661 18.3147 98.3328 19.3013 98.3328 20.4C98.3328 21.4987 98.0661 22.4907 97.5328 23.376C96.9994 24.2507 96.2688 24.9387 95.3408 25.44C94.4128 25.9413 93.3674 26.192 92.2048 26.192ZM92.2048 23.984C92.8661 23.984 93.4634 23.8347 93.9968 23.536C94.5301 23.2267 94.9461 22.8 95.2448 22.256C95.5541 21.712 95.7088 21.0933 95.7088 20.4C95.7088 19.7067 95.5541 19.088 95.2448 18.544C94.9461 18 94.5301 17.5787 93.9968 17.28C93.4634 16.9707 92.8661 16.816 92.2048 16.816C91.5434 16.816 90.9461 16.9707 90.4128 17.28C89.8794 17.5787 89.4581 18 89.1488 18.544C88.8501 19.088 88.7008 19.7067 88.7008 20.4C88.7008 21.0933 88.8501 21.712 89.1488 22.256C89.4581 22.8 89.8794 23.2267 90.4128 23.536C90.9461 23.8347 91.5434 23.984 92.2048 23.984ZM105.674 26.192C104.511 26.192 103.46 25.9413 102.522 25.44C101.594 24.9387 100.863 24.2507 100.33 23.376C99.8068 22.4907 99.5455 21.4987 99.5455 20.4C99.5455 19.3013 99.8068 18.3147 100.33 17.44C100.863 16.5547 101.594 15.8613 102.522 15.36C103.46 14.8587 104.511 14.608 105.674 14.608C106.836 14.608 107.882 14.8587 108.81 15.36C109.738 15.8613 110.468 16.5547 111.002 17.44C111.535 18.3147 111.802 19.3013 111.802 20.4C111.802 21.4987 111.535 22.4907 111.002 23.376C110.468 24.2507 109.738 24.9387 108.81 25.44C107.882 25.9413 106.836 26.192 105.674 26.192ZM105.674 23.984C106.335 23.984 106.932 23.8347 107.466 23.536C107.999 23.2267 108.415 22.8 108.714 22.256C109.023 21.712 109.178 21.0933 109.178 20.4C109.178 19.7067 109.023 19.088 108.714 18.544C108.415 18 107.999 17.5787 107.466 17.28C106.932 16.9707 106.335 16.816 105.674 16.816C105.012 16.816 104.415 16.9707 103.882 17.28C103.348 17.5787 102.927 18 102.618 18.544C102.319 19.088 102.17 19.7067 102.17 20.4C102.17 21.0933 102.319 21.712 102.618 22.256C102.927 22.8 103.348 23.2267 103.882 23.536C104.415 23.8347 105.012 23.984 105.674 23.984ZM117.514 21.408L119.546 18.592H121.578L119.594 21.408L121.578 24.208H119.546L117.514 21.408ZM120.922 21.408L122.954 18.592H124.986L123.002 21.408L124.986 24.208H122.954L120.922 21.408ZM136.975 26L136.959 19.296L133.663 24.816H132.511L129.215 19.424V26H126.783V14.8H128.927L133.119 21.76L137.247 14.8H139.391L139.407 26H136.975ZM147.485 26.192C146.344 26.192 145.309 25.9467 144.381 25.456C143.464 24.9547 142.738 24.2667 142.205 23.392C141.682 22.5067 141.421 21.5093 141.421 20.4C141.421 19.2907 141.682 18.2987 142.205 17.424C142.738 16.5387 143.464 15.8507 144.381 15.36C145.309 14.8587 146.349 14.608 147.501 14.608C148.472 14.608 149.346 14.7787 150.125 15.12C150.914 15.4613 151.576 15.952 152.109 16.592L150.445 18.128C149.688 17.2533 148.749 16.816 147.629 16.816C146.936 16.816 146.317 16.9707 145.773 17.28C145.229 17.5787 144.802 18 144.493 18.544C144.194 19.088 144.045 19.7067 144.045 20.4C144.045 21.0933 144.194 21.712 144.493 22.256C144.802 22.8 145.229 23.2267 145.773 23.536C146.317 23.8347 146.936 23.984 147.629 23.984C148.749 23.984 149.688 23.5413 150.445 22.656L152.109 24.192C151.576 24.8427 150.914 25.3387 150.125 25.68C149.336 26.0213 148.456 26.192 147.485 26.192ZM158.134 21.488H156.342V26H153.766V14.8H156.342V19.328H158.198L161.142 14.8H163.878L160.214 20.208L163.99 26H161.046L158.134 21.488ZM164.572 24.208L166.556 21.408L164.572 18.592H166.604L168.636 21.408L166.604 24.208H164.572ZM167.98 24.208L169.964 21.408L167.98 18.592H170.012L172.044 21.408L170.012 24.208H167.98ZM81.191 31.9V41H80.242V32.732H74.483V41H73.534V31.9H81.191ZM86.8615 41.065C86.2029 41.065 85.6092 40.9177 85.0805 40.623C84.5519 40.3197 84.1359 39.9037 83.8325 39.375C83.5292 38.8463 83.3775 38.2483 83.3775 37.581C83.3775 36.9137 83.5292 36.3157 83.8325 35.787C84.1359 35.2583 84.5519 34.8467 85.0805 34.552C85.6092 34.2573 86.2029 34.11 86.8615 34.11C87.5202 34.11 88.1139 34.2573 88.6425 34.552C89.1712 34.8467 89.5829 35.2583 89.8775 35.787C90.1809 36.3157 90.3325 36.9137 90.3325 37.581C90.3325 38.2483 90.1809 38.8463 89.8775 39.375C89.5829 39.9037 89.1712 40.3197 88.6425 40.623C88.1139 40.9177 87.5202 41.065 86.8615 41.065ZM86.8615 40.246C87.3469 40.246 87.7802 40.1377 88.1615 39.921C88.5515 39.6957 88.8549 39.3793 89.0715 38.972C89.2882 38.5647 89.3965 38.101 89.3965 37.581C89.3965 37.061 89.2882 36.5973 89.0715 36.19C88.8549 35.7827 88.5515 35.4707 88.1615 35.254C87.7802 35.0287 87.3469 34.916 86.8615 34.916C86.3762 34.916 85.9385 35.0287 85.5485 35.254C85.1672 35.4707 84.8639 35.7827 84.6385 36.19C84.4219 36.5973 84.3135 37.061 84.3135 37.581C84.3135 38.101 84.4219 38.5647 84.6385 38.972C84.8639 39.3793 85.1672 39.6957 85.5485 39.921C85.9385 40.1377 86.3762 40.246 86.8615 40.246ZM97.8571 34.162V41H96.9341V34.981H93.6581L93.5671 36.671C93.4978 38.0923 93.3331 39.1843 93.0731 39.947C92.8131 40.7097 92.3494 41.091 91.6821 41.091C91.5001 41.091 91.2791 41.0563 91.0191 40.987L91.0841 40.194C91.2401 40.2287 91.3484 40.246 91.4091 40.246C91.7644 40.246 92.0331 40.0813 92.2151 39.752C92.3971 39.4227 92.5184 39.0153 92.5791 38.53C92.6398 38.0447 92.6918 37.4033 92.7351 36.606L92.8521 34.162H97.8571ZM106.292 34.162L102.873 41.819C102.596 42.4603 102.275 42.9153 101.911 43.184C101.547 43.4527 101.109 43.587 100.598 43.587C100.269 43.587 99.961 43.535 99.675 43.431C99.389 43.327 99.142 43.171 98.934 42.963L99.363 42.274C99.7096 42.6207 100.126 42.794 100.611 42.794C100.923 42.794 101.187 42.7073 101.404 42.534C101.629 42.3607 101.837 42.066 102.028 41.65L102.327 40.987L99.272 34.162H100.234L102.808 39.973L105.382 34.162H106.292ZM110.4 41.065C109.724 41.065 109.117 40.9177 108.58 40.623C108.051 40.3283 107.635 39.9167 107.332 39.388C107.028 38.8507 106.877 38.2483 106.877 37.581C106.877 36.9137 107.028 36.3157 107.332 35.787C107.635 35.2583 108.051 34.8467 108.58 34.552C109.117 34.2573 109.724 34.11 110.4 34.11C110.989 34.11 111.513 34.227 111.973 34.461C112.441 34.6863 112.809 35.02 113.078 35.462L112.389 35.93C112.163 35.592 111.877 35.3407 111.531 35.176C111.184 35.0027 110.807 34.916 110.4 34.916C109.906 34.916 109.459 35.0287 109.061 35.254C108.671 35.4707 108.363 35.7827 108.138 36.19C107.921 36.5973 107.813 37.061 107.813 37.581C107.813 38.1097 107.921 38.5777 108.138 38.985C108.363 39.3837 108.671 39.6957 109.061 39.921C109.459 40.1377 109.906 40.246 110.4 40.246C110.807 40.246 111.184 40.1637 111.531 39.999C111.877 39.8343 112.163 39.583 112.389 39.245L113.078 39.713C112.809 40.155 112.441 40.493 111.973 40.727C111.505 40.9523 110.98 41.065 110.4 41.065ZM120.574 34.162L117.155 41.819C116.878 42.4603 116.557 42.9153 116.193 43.184C115.829 43.4527 115.392 43.587 114.88 43.587C114.551 43.587 114.243 43.535 113.957 43.431C113.671 43.327 113.424 43.171 113.216 42.963L113.645 42.274C113.992 42.6207 114.408 42.794 114.893 42.794C115.205 42.794 115.47 42.7073 115.686 42.534C115.912 42.3607 116.12 42.066 116.31 41.65L116.609 40.987L113.554 34.162H114.516L117.09 39.973L119.664 34.162H120.574ZM125.896 41L123.725 38.14L121.541 41H120.501L123.205 37.49L120.631 34.162H121.671L123.725 36.84L125.779 34.162H126.793L124.219 37.49L126.949 41H125.896ZM130.687 34.11C131.58 34.11 132.265 34.3353 132.741 34.786C133.218 35.228 133.456 35.8867 133.456 36.762V41H132.572V39.934C132.364 40.2893 132.057 40.5667 131.649 40.766C131.251 40.9653 130.774 41.065 130.219 41.065C129.457 41.065 128.85 40.883 128.399 40.519C127.949 40.155 127.723 39.674 127.723 39.076C127.723 38.4953 127.931 38.0273 128.347 37.672C128.772 37.3167 129.444 37.139 130.362 37.139H132.533V36.723C132.533 36.1337 132.369 35.6873 132.039 35.384C131.71 35.072 131.229 34.916 130.596 34.916C130.163 34.916 129.747 34.9897 129.348 35.137C128.95 35.2757 128.607 35.4707 128.321 35.722L127.905 35.033C128.252 34.7383 128.668 34.513 129.153 34.357C129.639 34.1923 130.15 34.11 130.687 34.11ZM130.362 40.337C130.882 40.337 131.329 40.22 131.701 39.986C132.074 39.7433 132.351 39.3967 132.533 38.946V37.828H130.388C129.218 37.828 128.633 38.2353 128.633 39.05C128.633 39.4487 128.785 39.765 129.088 39.999C129.392 40.2243 129.816 40.337 130.362 40.337ZM141.166 34.162V41H140.321V38.738H138.176H137.916L136.33 41H135.329L137.032 38.608C136.503 38.4607 136.096 38.2093 135.81 37.854C135.524 37.4987 135.381 37.048 135.381 36.502C135.381 35.7393 135.641 35.1587 136.161 34.76C136.681 34.3613 137.391 34.162 138.293 34.162H141.166ZM136.317 36.528C136.317 37.542 136.962 38.049 138.254 38.049H140.321V34.981H138.319C136.984 34.981 136.317 35.4967 136.317 36.528ZM150.06 41.065C149.384 41.065 148.777 40.9177 148.24 40.623C147.711 40.3283 147.295 39.9167 146.992 39.388C146.688 38.8507 146.537 38.2483 146.537 37.581C146.537 36.9137 146.688 36.3157 146.992 35.787C147.295 35.2583 147.711 34.8467 148.24 34.552C148.777 34.2573 149.384 34.11 150.06 34.11C150.649 34.11 151.173 34.227 151.633 34.461C152.101 34.6863 152.469 35.02 152.738 35.462L152.049 35.93C151.823 35.592 151.537 35.3407 151.191 35.176C150.844 35.0027 150.467 34.916 150.06 34.916C149.566 34.916 149.119 35.0287 148.721 35.254C148.331 35.4707 148.023 35.7827 147.798 36.19C147.581 36.5973 147.473 37.061 147.473 37.581C147.473 38.1097 147.581 38.5777 147.798 38.985C148.023 39.3837 148.331 39.6957 148.721 39.921C149.119 40.1377 149.566 40.246 150.06 40.246C150.467 40.246 150.844 40.1637 151.191 39.999C151.537 39.8343 151.823 39.583 152.049 39.245L152.738 39.713C152.469 40.155 152.101 40.493 151.633 40.727C151.165 40.9523 150.64 41.065 150.06 41.065ZM159.208 34.981H156.621V41H155.698V34.981H153.111V34.162H159.208V34.981ZM165.655 34.162V41H164.81V38.738H162.665H162.405L160.819 41H159.818L161.521 38.608C160.992 38.4607 160.585 38.2093 160.299 37.854C160.013 37.4987 159.87 37.048 159.87 36.502C159.87 35.7393 160.13 35.1587 160.65 34.76C161.17 34.3613 161.881 34.162 162.782 34.162H165.655ZM160.806 36.528C160.806 37.542 161.452 38.049 162.743 38.049H164.81V34.981H162.808C161.473 34.981 160.806 35.4967 160.806 36.528ZM174.28 37.958H172.798V41H171.875V37.958H170.393L168.3 41H167.195L169.652 37.477L167.39 34.162H168.391L170.393 37.165H171.875V34.162H172.798V37.165H174.28L176.295 34.162H177.296L175.034 37.49L177.491 41H176.386L174.28 37.958ZM181.51 37.958H179.95V41H179.027V34.162H179.95V37.165H181.523L183.928 34.162H184.929L182.238 37.477L185.124 41H184.032L181.51 37.958ZM188.807 34.11C189.699 34.11 190.384 34.3353 190.861 34.786C191.337 35.228 191.576 35.8867 191.576 36.762V41H190.692V39.934C190.484 40.2893 190.176 40.5667 189.769 40.766C189.37 40.9653 188.893 41.065 188.339 41.065C187.576 41.065 186.969 40.883 186.519 40.519C186.068 40.155 185.843 39.674 185.843 39.076C185.843 38.4953 186.051 38.0273 186.467 37.672C186.891 37.3167 187.563 37.139 188.482 37.139H190.653V36.723C190.653 36.1337 190.488 35.6873 190.159 35.384C189.829 35.072 189.348 34.916 188.716 34.916C188.282 34.916 187.866 34.9897 187.468 35.137C187.069 35.2757 186.727 35.4707 186.441 35.722L186.025 35.033C186.371 34.7383 186.787 34.513 187.273 34.357C187.758 34.1923 188.269 34.11 188.807 34.11ZM188.482 40.337C189.002 40.337 189.448 40.22 189.821 39.986C190.193 39.7433 190.471 39.3967 190.653 38.946V37.828H188.508C187.338 37.828 186.753 38.2353 186.753 39.05C186.753 39.4487 186.904 39.765 187.208 39.999C187.511 40.2243 187.936 40.337 188.482 40.337ZM203.571 34.162V41H202.648V34.981H198.358V41H197.435V34.162H203.571ZM209.016 41.065C208.357 41.065 207.764 40.9177 207.235 40.623C206.706 40.3197 206.29 39.9037 205.987 39.375C205.684 38.8463 205.532 38.2483 205.532 37.581C205.532 36.9137 205.684 36.3157 205.987 35.787C206.29 35.2583 206.706 34.8467 207.235 34.552C207.764 34.2573 208.357 34.11 209.016 34.11C209.675 34.11 210.268 34.2573 210.797 34.552C211.326 34.8467 211.737 35.2583 212.032 35.787C212.335 36.3157 212.487 36.9137 212.487 37.581C212.487 38.2483 212.335 38.8463 212.032 39.375C211.737 39.9037 211.326 40.3197 210.797 40.623C210.268 40.9177 209.675 41.065 209.016 41.065ZM209.016 40.246C209.501 40.246 209.935 40.1377 210.316 39.921C210.706 39.6957 211.009 39.3793 211.226 38.972C211.443 38.5647 211.551 38.101 211.551 37.581C211.551 37.061 211.443 36.5973 211.226 36.19C211.009 35.7827 210.706 35.4707 210.316 35.254C209.935 35.0287 209.501 34.916 209.016 34.916C208.531 34.916 208.093 35.0287 207.703 35.254C207.322 35.4707 207.018 35.7827 206.793 36.19C206.576 36.5973 206.468 37.061 206.468 37.581C206.468 38.101 206.576 38.5647 206.793 38.972C207.018 39.3793 207.322 39.6957 207.703 39.921C208.093 40.1377 208.531 40.246 209.016 40.246ZM220.011 34.162V41H219.088V34.981H215.812L215.721 36.671C215.652 38.0923 215.487 39.1843 215.227 39.947C214.967 40.7097 214.504 41.091 213.836 41.091C213.654 41.091 213.433 41.0563 213.173 40.987L213.238 40.194C213.394 40.2287 213.503 40.246 213.563 40.246C213.919 40.246 214.187 40.0813 214.369 39.752C214.551 39.4227 214.673 39.0153 214.733 38.53C214.794 38.0447 214.846 37.4033 214.889 36.606L215.006 34.162H220.011ZM224.988 34.11C225.881 34.11 226.566 34.3353 227.042 34.786C227.519 35.228 227.757 35.8867 227.757 36.762V41H226.873V39.934C226.665 40.2893 226.358 40.5667 225.95 40.766C225.552 40.9653 225.075 41.065 224.52 41.065C223.758 41.065 223.151 40.883 222.7 40.519C222.25 40.155 222.024 39.674 222.024 39.076C222.024 38.4953 222.232 38.0273 222.648 37.672C223.073 37.3167 223.745 37.139 224.663 37.139H226.834V36.723C226.834 36.1337 226.67 35.6873 226.34 35.384C226.011 35.072 225.53 34.916 224.897 34.916C224.464 34.916 224.048 34.9897 223.649 35.137C223.251 35.2757 222.908 35.4707 222.622 35.722L222.206 35.033C222.553 34.7383 222.969 34.513 223.454 34.357C223.94 34.1923 224.451 34.11 224.988 34.11ZM224.663 40.337C225.183 40.337 225.63 40.22 226.002 39.986C226.375 39.7433 226.652 39.3967 226.834 38.946V37.828H224.689C223.519 37.828 222.934 38.2353 222.934 39.05C222.934 39.4487 223.086 39.765 223.389 39.999C223.693 40.2243 224.117 40.337 224.663 40.337ZM77.668 52.464C78.5953 52.6807 79.059 53.2397 79.059 54.141C79.059 54.739 78.838 55.1983 78.396 55.519C77.954 55.8397 77.2953 56 76.42 56H73.313V49.162H76.329C77.109 49.162 77.72 49.3137 78.162 49.617C78.604 49.9203 78.825 50.3537 78.825 50.917C78.825 51.2897 78.721 51.6103 78.513 51.879C78.3137 52.139 78.032 52.334 77.668 52.464ZM74.21 52.204H76.264C76.7927 52.204 77.1957 52.1043 77.473 51.905C77.759 51.7057 77.902 51.4153 77.902 51.034C77.902 50.6527 77.759 50.3667 77.473 50.176C77.1957 49.9853 76.7927 49.89 76.264 49.89H74.21V52.204ZM76.381 55.272C76.9703 55.272 77.4123 55.1767 77.707 54.986C78.0017 54.7953 78.149 54.4963 78.149 54.089C78.149 53.6817 78.0147 53.3827 77.746 53.192C77.4773 52.9927 77.0527 52.893 76.472 52.893H74.21V55.272H76.381ZM94.2965 46.9V56H93.3735V48.72L89.7985 54.843H89.3435L85.7685 48.759V56H84.8455V46.9H85.6385L89.5905 53.647L93.5035 46.9H94.2965ZM99.9631 56.065C99.3044 56.065 98.7108 55.9177 98.1821 55.623C97.6534 55.3197 97.2374 54.9037 96.9341 54.375C96.6308 53.8463 96.4791 53.2483 96.4791 52.581C96.4791 51.9137 96.6308 51.3157 96.9341 50.787C97.2374 50.2583 97.6534 49.8467 98.1821 49.552C98.7108 49.2573 99.3044 49.11 99.9631 49.11C100.622 49.11 101.215 49.2573 101.744 49.552C102.273 49.8467 102.684 50.2583 102.979 50.787C103.282 51.3157 103.434 51.9137 103.434 52.581C103.434 53.2483 103.282 53.8463 102.979 54.375C102.684 54.9037 102.273 55.3197 101.744 55.623C101.215 55.9177 100.622 56.065 99.9631 56.065ZM99.9631 55.246C100.448 55.246 100.882 55.1377 101.263 54.921C101.653 54.6957 101.956 54.3793 102.173 53.972C102.39 53.5647 102.498 53.101 102.498 52.581C102.498 52.061 102.39 51.5973 102.173 51.19C101.956 50.7827 101.653 50.4707 101.263 50.254C100.882 50.0287 100.448 49.916 99.9631 49.916C99.4778 49.916 99.0401 50.0287 98.6501 50.254C98.2688 50.4707 97.9654 50.7827 97.7401 51.19C97.5234 51.5973 97.4151 52.061 97.4151 52.581C97.4151 53.101 97.5234 53.5647 97.7401 53.972C97.9654 54.3793 98.2688 54.6957 98.6501 54.921C99.0401 55.1377 99.4778 55.246 99.9631 55.246ZM108.267 56.065C107.591 56.065 106.984 55.9177 106.447 55.623C105.918 55.3283 105.502 54.9167 105.199 54.388C104.895 53.8507 104.744 53.2483 104.744 52.581C104.744 51.9137 104.895 51.3157 105.199 50.787C105.502 50.2583 105.918 49.8467 106.447 49.552C106.984 49.2573 107.591 49.11 108.267 49.11C108.856 49.11 109.38 49.227 109.84 49.461C110.308 49.6863 110.676 50.02 110.945 50.462L110.256 50.93C110.03 50.592 109.744 50.3407 109.398 50.176C109.051 50.0027 108.674 49.916 108.267 49.916C107.773 49.916 107.326 50.0287 106.928 50.254C106.538 50.4707 106.23 50.7827 106.005 51.19C105.788 51.5973 105.68 52.061 105.68 52.581C105.68 53.1097 105.788 53.5777 106.005 53.985C106.23 54.3837 106.538 54.6957 106.928 54.921C107.326 55.1377 107.773 55.246 108.267 55.246C108.674 55.246 109.051 55.1637 109.398 54.999C109.744 54.8343 110.03 54.583 110.256 54.245L110.945 54.713C110.676 55.155 110.308 55.493 109.84 55.727C109.372 55.9523 108.847 56.065 108.267 56.065ZM115.215 52.958H113.655V56H112.732V49.162H113.655V52.165H115.228L117.633 49.162H118.634L115.943 52.477L118.829 56H117.737L115.215 52.958ZM124.641 52.464C125.568 52.6807 126.032 53.2397 126.032 54.141C126.032 54.739 125.811 55.1983 125.369 55.519C124.927 55.8397 124.268 56 123.393 56H120.286V49.162H123.302C124.082 49.162 124.693 49.3137 125.135 49.617C125.577 49.9203 125.798 50.3537 125.798 50.917C125.798 51.2897 125.694 51.6103 125.486 51.879C125.286 52.139 125.005 52.334 124.641 52.464ZM121.183 52.204H123.237C123.765 52.204 124.168 52.1043 124.446 51.905C124.732 51.7057 124.875 51.4153 124.875 51.034C124.875 50.6527 124.732 50.3667 124.446 50.176C124.168 49.9853 123.765 49.89 123.237 49.89H121.183V52.204ZM123.354 55.272C123.943 55.272 124.385 55.1767 124.68 54.986C124.974 54.7953 125.122 54.4963 125.122 54.089C125.122 53.6817 124.987 53.3827 124.719 53.192C124.45 52.9927 124.025 52.893 123.445 52.893H121.183V55.272H123.354ZM134.175 52.867H128.455C128.507 53.5777 128.78 54.154 129.274 54.596C129.768 55.0293 130.392 55.246 131.146 55.246C131.571 55.246 131.961 55.1723 132.316 55.025C132.671 54.869 132.979 54.6437 133.239 54.349L133.759 54.947C133.456 55.311 133.074 55.5883 132.615 55.779C132.164 55.9697 131.666 56.065 131.12 56.065C130.418 56.065 129.794 55.9177 129.248 55.623C128.711 55.3197 128.29 54.9037 127.987 54.375C127.684 53.8463 127.532 53.2483 127.532 52.581C127.532 51.9137 127.675 51.3157 127.961 50.787C128.256 50.2583 128.654 49.8467 129.157 49.552C129.668 49.2573 130.24 49.11 130.873 49.11C131.506 49.11 132.073 49.2573 132.576 49.552C133.079 49.8467 133.473 50.2583 133.759 50.787C134.045 51.307 134.188 51.905 134.188 52.581L134.175 52.867ZM130.873 49.903C130.214 49.903 129.66 50.1153 129.209 50.54C128.767 50.956 128.516 51.502 128.455 52.178H133.304C133.243 51.502 132.988 50.956 132.537 50.54C132.095 50.1153 131.54 49.903 130.873 49.903ZM139.633 49.162H140.556V54.596L145.119 49.162H145.938V56H145.015V50.566L140.465 56H139.633V49.162ZM154.807 56.065C154.148 56.065 153.555 55.9177 153.026 55.623C152.497 55.3197 152.081 54.9037 151.778 54.375C151.475 53.8463 151.323 53.2483 151.323 52.581C151.323 51.9137 151.475 51.3157 151.778 50.787C152.081 50.2583 152.497 49.8467 153.026 49.552C153.555 49.2573 154.148 49.11 154.807 49.11C155.466 49.11 156.059 49.2573 156.588 49.552C157.117 49.8467 157.528 50.2583 157.823 50.787C158.126 51.3157 158.278 51.9137 158.278 52.581C158.278 53.2483 158.126 53.8463 157.823 54.375C157.528 54.9037 157.117 55.3197 156.588 55.623C156.059 55.9177 155.466 56.065 154.807 56.065ZM154.807 55.246C155.292 55.246 155.726 55.1377 156.107 54.921C156.497 54.6957 156.8 54.3793 157.017 53.972C157.234 53.5647 157.342 53.101 157.342 52.581C157.342 52.061 157.234 51.5973 157.017 51.19C156.8 50.7827 156.497 50.4707 156.107 50.254C155.726 50.0287 155.292 49.916 154.807 49.916C154.322 49.916 153.884 50.0287 153.494 50.254C153.113 50.4707 152.809 50.7827 152.584 51.19C152.367 51.5973 152.259 52.061 152.259 52.581C152.259 53.101 152.367 53.5647 152.584 53.972C152.809 54.3793 153.113 54.6957 153.494 54.921C153.884 55.1377 154.322 55.246 154.807 55.246ZM163.566 49.331C164.198 49.331 164.762 49.474 165.256 49.76C165.758 50.0373 166.148 50.4317 166.426 50.943C166.703 51.4457 166.842 52.022 166.842 52.672C166.842 53.3393 166.694 53.933 166.4 54.453C166.114 54.9643 165.711 55.363 165.191 55.649C164.671 55.935 164.073 56.078 163.397 56.078C162.261 56.078 161.382 55.6793 160.758 54.882C160.134 54.0847 159.822 52.984 159.822 51.58C159.822 50.1153 160.099 48.993 160.653 48.213C161.217 47.433 162.092 46.9043 163.28 46.627L166.348 45.925L166.504 46.77L163.618 47.433C162.638 47.6497 161.919 48.0353 161.46 48.59C161 49.136 160.749 49.9463 160.706 51.021C160.983 50.4923 161.369 50.0807 161.863 49.786C162.357 49.4827 162.924 49.331 163.566 49.331ZM163.423 55.311C163.899 55.311 164.324 55.2027 164.697 54.986C165.078 54.7607 165.373 54.4487 165.581 54.05C165.797 53.6513 165.906 53.2007 165.906 52.698C165.906 52.1953 165.802 51.7533 165.594 51.372C165.386 50.9907 165.091 50.696 164.71 50.488C164.337 50.2713 163.908 50.163 163.423 50.163C162.937 50.163 162.504 50.2713 162.123 50.488C161.75 50.696 161.455 50.9907 161.239 51.372C161.031 51.7533 160.927 52.1953 160.927 52.698C160.927 53.2007 161.031 53.6513 161.239 54.05C161.455 54.4487 161.754 54.7607 162.136 54.986C162.517 55.2027 162.946 55.311 163.423 55.311ZM174.372 49.162V56H173.449V49.981H170.173L170.082 51.671C170.012 53.0923 169.848 54.1843 169.588 54.947C169.328 55.7097 168.864 56.091 168.197 56.091C168.015 56.091 167.794 56.0563 167.534 55.987L167.599 55.194C167.755 55.2287 167.863 55.246 167.924 55.246C168.279 55.246 168.548 55.0813 168.73 54.752C168.912 54.4227 169.033 54.0153 169.094 53.53C169.154 53.0447 169.206 52.4033 169.25 51.606L169.367 49.162H174.372ZM179.349 49.11C180.241 49.11 180.926 49.3353 181.403 49.786C181.879 50.228 182.118 50.8867 182.118 51.762V56H181.234V54.934C181.026 55.2893 180.718 55.5667 180.311 55.766C179.912 55.9653 179.435 56.065 178.881 56.065C178.118 56.065 177.511 55.883 177.061 55.519C176.61 55.155 176.385 54.674 176.385 54.076C176.385 53.4953 176.593 53.0273 177.009 52.672C177.433 52.3167 178.105 52.139 179.024 52.139H181.195V51.723C181.195 51.1337 181.03 50.6873 180.701 50.384C180.371 50.072 179.89 49.916 179.258 49.916C178.824 49.916 178.408 49.9897 178.01 50.137C177.611 50.2757 177.269 50.4707 176.983 50.722L176.567 50.033C176.913 49.7383 177.329 49.513 177.815 49.357C178.3 49.1923 178.811 49.11 179.349 49.11ZM179.024 55.337C179.544 55.337 179.99 55.22 180.363 54.986C180.735 54.7433 181.013 54.3967 181.195 53.946V52.828H179.05C177.88 52.828 177.295 53.2353 177.295 54.05C177.295 54.4487 177.446 54.765 177.75 54.999C178.053 55.2243 178.478 55.337 179.024 55.337ZM187.435 56.065C186.759 56.065 186.152 55.9177 185.615 55.623C185.086 55.3283 184.67 54.9167 184.367 54.388C184.063 53.8507 183.912 53.2483 183.912 52.581C183.912 51.9137 184.063 51.3157 184.367 50.787C184.67 50.2583 185.086 49.8467 185.615 49.552C186.152 49.2573 186.759 49.11 187.435 49.11C188.024 49.11 188.548 49.227 189.008 49.461C189.476 49.6863 189.844 50.02 190.113 50.462L189.424 50.93C189.198 50.592 188.912 50.3407 188.566 50.176C188.219 50.0027 187.842 49.916 187.435 49.916C186.941 49.916 186.494 50.0287 186.096 50.254C185.706 50.4707 185.398 50.7827 185.173 51.19C184.956 51.5973 184.848 52.061 184.848 52.581C184.848 53.1097 184.956 53.5777 185.173 53.985C185.398 54.3837 185.706 54.6957 186.096 54.921C186.494 55.1377 186.941 55.246 187.435 55.246C187.842 55.246 188.219 55.1637 188.566 54.999C188.912 54.8343 189.198 54.583 189.424 54.245L190.113 54.713C189.844 55.155 189.476 55.493 189.008 55.727C188.54 55.9523 188.015 56.065 187.435 56.065ZM196.583 49.981H193.996V56H193.073V49.981H190.486V49.162H196.583V49.981ZM197.917 49.162H198.84V54.596L203.403 49.162H204.222V56H203.299V50.566L198.749 56H197.917V49.162Z" fill="black"/>
<defs>
<linearGradient id="paint0_linear" x1="19.1041" y1="34.4261" x2="19.1041" y2="67.438" gradientUnits="userSpaceOnUse">
<stop stop-color="#FF5B14"/>
<stop offset="1" stop-color="#FF7F47"/>
</linearGradient>
</defs>
</svg>
