<svg width="166" height="41" viewBox="0 0 166 41" fill="none" xmlns="http://www.w3.org/2000/svg">
<ellipse cx="1.05849" cy="1.1081" rx="1.05849" ry="1.1081" fill="#C2C2C2"/>
<ellipse cx="1.05849" cy="32.1352" rx="1.05849" ry="1.10813" fill="#C2C2C2"/>
<ellipse cx="1.05849" cy="16.6216" rx="1.05849" ry="1.10813" fill="#C2C2C2"/>
<ellipse cx="1.05849" cy="8.86488" rx="1.05849" ry="1.10807" fill="#C2C2C2"/>
<ellipse cx="1.05849" cy="39.8919" rx="1.05849" ry="1.10813" fill="#C2C2C2"/>
<ellipse cx="1.05849" cy="24.3784" rx="1.05849" ry="1.10804" fill="#C2C2C2"/>
<ellipse cx="60.3342" cy="1.1081" rx="1.05849" ry="1.1081" fill="#C2C2C2"/>
<ellipse cx="119.61" cy="1.1081" rx="1.05851" ry="1.1081" fill="#C2C2C2"/>
<ellipse cx="60.3342" cy="32.1352" rx="1.05849" ry="1.10813" fill="#C2C2C2"/>
<ellipse cx="119.61" cy="32.1352" rx="1.05851" ry="1.10813" fill="#C2C2C2"/>
<ellipse cx="60.3342" cy="16.6216" rx="1.05849" ry="1.10813" fill="#C2C2C2"/>
<ellipse cx="119.61" cy="16.6216" rx="1.05851" ry="1.10813" fill="#C2C2C2"/>
<ellipse cx="60.3342" cy="8.86488" rx="1.05849" ry="1.10807" fill="#C2C2C2"/>
<ellipse cx="119.61" cy="8.86488" rx="1.05851" ry="1.10807" fill="#C2C2C2"/>
<ellipse cx="60.3342" cy="39.8919" rx="1.05849" ry="1.10813" fill="#C2C2C2"/>
<ellipse cx="119.61" cy="39.8919" rx="1.05851" ry="1.10813" fill="#C2C2C2"/>
<ellipse cx="60.3342" cy="24.3784" rx="1.05849" ry="1.10804" fill="#C2C2C2"/>
<ellipse cx="119.61" cy="24.3784" rx="1.05851" ry="1.10804" fill="#C2C2C2"/>
<ellipse cx="67.7436" cy="1.1081" rx="1.05849" ry="1.1081" fill="#C2C2C2"/>
<ellipse cx="127.019" cy="1.1081" rx="1.05851" ry="1.1081" fill="#C2C2C2"/>
<ellipse cx="67.7436" cy="32.1352" rx="1.05849" ry="1.10813" fill="#C2C2C2"/>
<ellipse cx="127.019" cy="32.1352" rx="1.05851" ry="1.10813" fill="#C2C2C2"/>
<ellipse cx="67.7436" cy="16.6216" rx="1.05849" ry="1.10813" fill="#C2C2C2"/>
<ellipse cx="127.019" cy="16.6216" rx="1.05851" ry="1.10813" fill="#C2C2C2"/>
<ellipse cx="67.7436" cy="8.86488" rx="1.05849" ry="1.10807" fill="#C2C2C2"/>
<ellipse cx="127.019" cy="8.86488" rx="1.05851" ry="1.10807" fill="#C2C2C2"/>
<ellipse cx="67.7436" cy="39.8919" rx="1.05849" ry="1.10813" fill="#C2C2C2"/>
<ellipse cx="127.019" cy="39.8919" rx="1.05851" ry="1.10813" fill="#C2C2C2"/>
<ellipse cx="67.7436" cy="24.3784" rx="1.05849" ry="1.10804" fill="#C2C2C2"/>
<ellipse cx="127.019" cy="24.3784" rx="1.05851" ry="1.10804" fill="#C2C2C2"/>
<ellipse cx="75.1531" cy="1.1081" rx="1.05849" ry="1.1081" fill="#C2C2C2"/>
<ellipse cx="134.429" cy="1.1081" rx="1.05851" ry="1.1081" fill="#C2C2C2"/>
<ellipse cx="75.1531" cy="32.1352" rx="1.05849" ry="1.10813" fill="#C2C2C2"/>
<ellipse cx="134.429" cy="32.1352" rx="1.05851" ry="1.10813" fill="#C2C2C2"/>
<ellipse cx="75.1531" cy="16.6216" rx="1.05849" ry="1.10813" fill="#C2C2C2"/>
<ellipse cx="134.429" cy="16.6216" rx="1.05851" ry="1.10813" fill="#C2C2C2"/>
<ellipse cx="75.1531" cy="8.86488" rx="1.05849" ry="1.10807" fill="#C2C2C2"/>
<ellipse cx="134.429" cy="8.86488" rx="1.05851" ry="1.10807" fill="#C2C2C2"/>
<ellipse cx="75.1531" cy="39.8919" rx="1.05849" ry="1.10813" fill="#C2C2C2"/>
<ellipse cx="134.429" cy="39.8919" rx="1.05851" ry="1.10813" fill="#C2C2C2"/>
<ellipse cx="75.1531" cy="24.3784" rx="1.05849" ry="1.10804" fill="#C2C2C2"/>
<ellipse cx="134.429" cy="24.3784" rx="1.05851" ry="1.10804" fill="#C2C2C2"/>
<ellipse cx="82.5626" cy="1.1081" rx="1.05851" ry="1.1081" fill="#C2C2C2"/>
<ellipse cx="149.248" cy="1.1081" rx="1.05851" ry="1.1081" fill="#C2C2C2"/>
<ellipse cx="82.5626" cy="32.1352" rx="1.05851" ry="1.10813" fill="#C2C2C2"/>
<ellipse cx="149.248" cy="32.1352" rx="1.05851" ry="1.10813" fill="#C2C2C2"/>
<ellipse cx="82.5626" cy="16.6216" rx="1.05851" ry="1.10813" fill="#C2C2C2"/>
<ellipse cx="149.248" cy="16.6216" rx="1.05851" ry="1.10813" fill="#C2C2C2"/>
<ellipse cx="82.5626" cy="8.86488" rx="1.05851" ry="1.10807" fill="#C2C2C2"/>
<ellipse cx="149.248" cy="8.86488" rx="1.05851" ry="1.10807" fill="#C2C2C2"/>
<ellipse cx="82.5626" cy="39.8919" rx="1.05851" ry="1.10813" fill="#C2C2C2"/>
<ellipse cx="149.248" cy="39.8919" rx="1.05851" ry="1.10813" fill="#C2C2C2"/>
<ellipse cx="82.5626" cy="24.3784" rx="1.05851" ry="1.10804" fill="#C2C2C2"/>
<ellipse cx="149.248" cy="24.3784" rx="1.05851" ry="1.10804" fill="#C2C2C2"/>
<ellipse cx="89.972" cy="1.1081" rx="1.05851" ry="1.1081" fill="#C2C2C2"/>
<ellipse cx="156.657" cy="1.1081" rx="1.05851" ry="1.1081" fill="#C2C2C2"/>
<ellipse cx="89.972" cy="32.1352" rx="1.05851" ry="1.10813" fill="#C2C2C2"/>
<ellipse cx="156.657" cy="32.1352" rx="1.05851" ry="1.10813" fill="#C2C2C2"/>
<ellipse cx="89.972" cy="16.6216" rx="1.05851" ry="1.10813" fill="#C2C2C2"/>
<ellipse cx="156.657" cy="16.6216" rx="1.05851" ry="1.10813" fill="#C2C2C2"/>
<ellipse cx="89.972" cy="8.86488" rx="1.05851" ry="1.10807" fill="#C2C2C2"/>
<ellipse cx="156.657" cy="8.86488" rx="1.05851" ry="1.10807" fill="#C2C2C2"/>
<ellipse cx="89.972" cy="39.8919" rx="1.05851" ry="1.10813" fill="#C2C2C2"/>
<ellipse cx="156.657" cy="39.8919" rx="1.05851" ry="1.10813" fill="#C2C2C2"/>
<ellipse cx="89.972" cy="24.3784" rx="1.05851" ry="1.10804" fill="#C2C2C2"/>
<ellipse cx="156.657" cy="24.3784" rx="1.05851" ry="1.10804" fill="#C2C2C2"/>
<ellipse cx="97.3814" cy="1.1081" rx="1.05851" ry="1.1081" fill="#C2C2C2"/>
<ellipse cx="164.067" cy="1.1081" rx="1.05851" ry="1.1081" fill="#C2C2C2"/>
<ellipse cx="97.3814" cy="32.1352" rx="1.05851" ry="1.10813" fill="#C2C2C2"/>
<ellipse cx="164.067" cy="32.1352" rx="1.05851" ry="1.10813" fill="#C2C2C2"/>
<ellipse cx="97.3814" cy="16.6216" rx="1.05851" ry="1.10813" fill="#C2C2C2"/>
<ellipse cx="164.067" cy="16.6216" rx="1.05851" ry="1.10813" fill="#C2C2C2"/>
<ellipse cx="97.3814" cy="8.86488" rx="1.05851" ry="1.10807" fill="#C2C2C2"/>
<ellipse cx="164.067" cy="8.86488" rx="1.05851" ry="1.10807" fill="#C2C2C2"/>
<ellipse cx="97.3814" cy="39.8919" rx="1.05851" ry="1.10813" fill="#C2C2C2"/>
<ellipse cx="164.067" cy="39.8919" rx="1.05851" ry="1.10813" fill="#C2C2C2"/>
<ellipse cx="97.3814" cy="24.3784" rx="1.05851" ry="1.10804" fill="#C2C2C2"/>
<ellipse cx="164.067" cy="24.3784" rx="1.05851" ry="1.10804" fill="#C2C2C2"/>
<ellipse cx="104.791" cy="1.1081" rx="1.05851" ry="1.1081" fill="#C2C2C2"/>
<ellipse cx="104.791" cy="32.1352" rx="1.05851" ry="1.10813" fill="#C2C2C2"/>
<ellipse cx="104.791" cy="16.6216" rx="1.05851" ry="1.10813" fill="#C2C2C2"/>
<ellipse cx="104.791" cy="8.86488" rx="1.05851" ry="1.10807" fill="#C2C2C2"/>
<ellipse cx="104.791" cy="39.8919" rx="1.05851" ry="1.10813" fill="#C2C2C2"/>
<ellipse cx="104.791" cy="24.3784" rx="1.05851" ry="1.10804" fill="#C2C2C2"/>
<ellipse cx="112.2" cy="1.1081" rx="1.05851" ry="1.1081" fill="#C2C2C2"/>
<ellipse cx="112.2" cy="32.1352" rx="1.05851" ry="1.10813" fill="#C2C2C2"/>
<ellipse cx="112.2" cy="16.6216" rx="1.05851" ry="1.10813" fill="#C2C2C2"/>
<ellipse cx="112.2" cy="8.86488" rx="1.05851" ry="1.10807" fill="#C2C2C2"/>
<ellipse cx="112.2" cy="39.8919" rx="1.05851" ry="1.10813" fill="#C2C2C2"/>
<ellipse cx="112.2" cy="24.3784" rx="1.05851" ry="1.10804" fill="#C2C2C2"/>
<ellipse cx="8.46798" cy="1.1081" rx="1.05849" ry="1.1081" fill="#C2C2C2"/>
<ellipse cx="8.46798" cy="32.1352" rx="1.05849" ry="1.10813" fill="#C2C2C2"/>
<ellipse cx="8.46798" cy="16.6216" rx="1.05849" ry="1.10813" fill="#C2C2C2"/>
<ellipse cx="8.46798" cy="8.86488" rx="1.05849" ry="1.10807" fill="#C2C2C2"/>
<ellipse cx="8.46798" cy="39.8919" rx="1.05849" ry="1.10813" fill="#C2C2C2"/>
<ellipse cx="8.46798" cy="24.3784" rx="1.05849" ry="1.10804" fill="#C2C2C2"/>
<ellipse cx="15.8774" cy="1.1081" rx="1.05849" ry="1.1081" fill="#C2C2C2"/>
<ellipse cx="15.8774" cy="32.1352" rx="1.05849" ry="1.10813" fill="#C2C2C2"/>
<ellipse cx="15.8774" cy="16.6216" rx="1.05849" ry="1.10813" fill="#C2C2C2"/>
<ellipse cx="15.8774" cy="8.86488" rx="1.05849" ry="1.10807" fill="#C2C2C2"/>
<ellipse cx="15.8774" cy="39.8919" rx="1.05849" ry="1.10813" fill="#C2C2C2"/>
<ellipse cx="15.8774" cy="24.3784" rx="1.05849" ry="1.10804" fill="#C2C2C2"/>
<ellipse cx="23.2869" cy="1.1081" rx="1.05849" ry="1.1081" fill="#C2C2C2"/>
<ellipse cx="23.2869" cy="32.1352" rx="1.05849" ry="1.10813" fill="#C2C2C2"/>
<ellipse cx="23.2869" cy="16.6216" rx="1.05849" ry="1.10813" fill="#C2C2C2"/>
<ellipse cx="23.2869" cy="8.86488" rx="1.05849" ry="1.10807" fill="#C2C2C2"/>
<ellipse cx="23.2869" cy="39.8919" rx="1.05849" ry="1.10813" fill="#C2C2C2"/>
<ellipse cx="23.2869" cy="24.3784" rx="1.05849" ry="1.10804" fill="#C2C2C2"/>
<ellipse cx="30.6963" cy="1.1081" rx="1.05849" ry="1.1081" fill="#C2C2C2"/>
<ellipse cx="30.6963" cy="32.1352" rx="1.05849" ry="1.10813" fill="#C2C2C2"/>
<ellipse cx="30.6963" cy="16.6216" rx="1.05849" ry="1.10813" fill="#C2C2C2"/>
<ellipse cx="30.6963" cy="8.86488" rx="1.05849" ry="1.10807" fill="#C2C2C2"/>
<ellipse cx="30.6963" cy="39.8919" rx="1.05849" ry="1.10813" fill="#C2C2C2"/>
<ellipse cx="30.6963" cy="24.3784" rx="1.05849" ry="1.10804" fill="#C2C2C2"/>
<ellipse cx="38.1058" cy="1.1081" rx="1.05849" ry="1.1081" fill="#C2C2C2"/>
<ellipse cx="38.1058" cy="32.1352" rx="1.05849" ry="1.10813" fill="#C2C2C2"/>
<ellipse cx="38.1058" cy="16.6216" rx="1.05849" ry="1.10813" fill="#C2C2C2"/>
<ellipse cx="38.1058" cy="8.86488" rx="1.05849" ry="1.10807" fill="#C2C2C2"/>
<ellipse cx="38.1058" cy="39.8919" rx="1.05849" ry="1.10813" fill="#C2C2C2"/>
<ellipse cx="38.1058" cy="24.3784" rx="1.05849" ry="1.10804" fill="#C2C2C2"/>
<ellipse cx="45.5152" cy="1.1081" rx="1.05849" ry="1.1081" fill="#C2C2C2"/>
<ellipse cx="45.5152" cy="32.1352" rx="1.05849" ry="1.10813" fill="#C2C2C2"/>
<ellipse cx="45.5152" cy="16.6216" rx="1.05849" ry="1.10813" fill="#C2C2C2"/>
<ellipse cx="45.5152" cy="8.86488" rx="1.05849" ry="1.10807" fill="#C2C2C2"/>
<ellipse cx="45.5152" cy="39.8919" rx="1.05849" ry="1.10813" fill="#C2C2C2"/>
<ellipse cx="45.5152" cy="24.3784" rx="1.05849" ry="1.10804" fill="#C2C2C2"/>
<ellipse cx="52.9247" cy="1.1081" rx="1.05849" ry="1.1081" fill="#C2C2C2"/>
<ellipse cx="52.9247" cy="32.1352" rx="1.05849" ry="1.10813" fill="#C2C2C2"/>
<ellipse cx="52.9247" cy="16.6216" rx="1.05849" ry="1.10813" fill="#C2C2C2"/>
<ellipse cx="52.9247" cy="8.86488" rx="1.05849" ry="1.10807" fill="#C2C2C2"/>
<ellipse cx="52.9247" cy="39.8919" rx="1.05849" ry="1.10813" fill="#C2C2C2"/>
<ellipse cx="52.9247" cy="24.3784" rx="1.05849" ry="1.10804" fill="#C2C2C2"/>
<ellipse cx="142.021" cy="1.1081" rx="1.05851" ry="1.1081" fill="#C2C2C2"/>
<ellipse cx="142.021" cy="32.1352" rx="1.05851" ry="1.10813" fill="#C2C2C2"/>
<ellipse cx="142.021" cy="16.6216" rx="1.05851" ry="1.10813" fill="#C2C2C2"/>
<ellipse cx="142.021" cy="8.86488" rx="1.05851" ry="1.10807" fill="#C2C2C2"/>
<ellipse cx="142.021" cy="39.8919" rx="1.05851" ry="1.10813" fill="#C2C2C2"/>
<ellipse cx="142.021" cy="24.3784" rx="1.05851" ry="1.10804" fill="#C2C2C2"/>
</svg>
