<svg width="208" height="68" viewBox="0 0 208 68" fill="none" xmlns="http://www.w3.org/2000/svg">
<circle cx="76.0001" cy="1.33333" r="1.33333" fill="#C2C2C2"/>
<circle cx="150.667" cy="1.33333" r="1.33333" fill="#C2C2C2"/>
<circle cx="76.0001" cy="38.6668" r="1.33333" fill="#C2C2C2"/>
<circle cx="150.667" cy="38.6668" r="1.33333" fill="#C2C2C2"/>
<circle cx="76.0001" cy="19.9998" r="1.33333" fill="#C2C2C2"/>
<circle cx="150.667" cy="19.9998" r="1.33333" fill="#C2C2C2"/>
<circle cx="76.0001" cy="57.3333" r="1.33333" fill="#C2C2C2"/>
<circle cx="150.667" cy="57.3333" r="1.33333" fill="#C2C2C2"/>
<circle cx="76.0001" cy="10.6663" r="1.33333" fill="#C2C2C2"/>
<circle cx="150.667" cy="10.6663" r="1.33333" fill="#C2C2C2"/>
<circle cx="76.0001" cy="48.0003" r="1.33333" fill="#C2C2C2"/>
<circle cx="150.667" cy="48.0003" r="1.33333" fill="#C2C2C2"/>
<circle cx="76.0001" cy="29.3328" r="1.33333" fill="#C2C2C2"/>
<circle cx="150.667" cy="29.3328" r="1.33333" fill="#C2C2C2"/>
<circle cx="76.0001" cy="66.6663" r="1.33333" fill="#C2C2C2"/>
<circle cx="150.667" cy="66.6663" r="1.33333" fill="#C2C2C2"/>
<circle cx="85.3334" cy="1.33333" r="1.33333" fill="#C2C2C2"/>
<circle cx="160" cy="1.33333" r="1.33333" fill="#C2C2C2"/>
<circle cx="85.3334" cy="38.6668" r="1.33333" fill="#C2C2C2"/>
<circle cx="160" cy="38.6668" r="1.33333" fill="#C2C2C2"/>
<circle cx="85.3334" cy="19.9998" r="1.33333" fill="#C2C2C2"/>
<circle cx="160" cy="19.9998" r="1.33333" fill="#C2C2C2"/>
<circle cx="85.3334" cy="57.3333" r="1.33333" fill="#C2C2C2"/>
<circle cx="160" cy="57.3333" r="1.33333" fill="#C2C2C2"/>
<circle cx="85.3334" cy="10.6663" r="1.33333" fill="#C2C2C2"/>
<circle cx="160" cy="10.6663" r="1.33333" fill="#C2C2C2"/>
<circle cx="85.3334" cy="48.0003" r="1.33333" fill="#C2C2C2"/>
<circle cx="160" cy="48.0003" r="1.33333" fill="#C2C2C2"/>
<circle cx="85.3334" cy="29.3328" r="1.33333" fill="#C2C2C2"/>
<circle cx="160" cy="29.3328" r="1.33333" fill="#C2C2C2"/>
<circle cx="85.3334" cy="66.6663" r="1.33333" fill="#C2C2C2"/>
<circle cx="160" cy="66.6663" r="1.33333" fill="#C2C2C2"/>
<circle cx="94.6667" cy="1.33333" r="1.33333" fill="#C2C2C2"/>
<circle cx="169.333" cy="1.33333" r="1.33333" fill="#C2C2C2"/>
<circle cx="94.6667" cy="38.6668" r="1.33333" fill="#C2C2C2"/>
<circle cx="169.333" cy="38.6668" r="1.33333" fill="#C2C2C2"/>
<circle cx="94.6667" cy="19.9998" r="1.33333" fill="#C2C2C2"/>
<circle cx="169.333" cy="19.9998" r="1.33333" fill="#C2C2C2"/>
<circle cx="94.6667" cy="57.3333" r="1.33333" fill="#C2C2C2"/>
<circle cx="169.333" cy="57.3333" r="1.33333" fill="#C2C2C2"/>
<circle cx="94.6667" cy="10.6663" r="1.33333" fill="#C2C2C2"/>
<circle cx="169.333" cy="10.6663" r="1.33333" fill="#C2C2C2"/>
<circle cx="94.6667" cy="48.0003" r="1.33333" fill="#C2C2C2"/>
<circle cx="169.333" cy="48.0003" r="1.33333" fill="#C2C2C2"/>
<circle cx="94.6667" cy="29.3328" r="1.33333" fill="#C2C2C2"/>
<circle cx="169.333" cy="29.3328" r="1.33333" fill="#C2C2C2"/>
<circle cx="94.6667" cy="66.6663" r="1.33333" fill="#C2C2C2"/>
<circle cx="169.333" cy="66.6663" r="1.33333" fill="#C2C2C2"/>
<circle cx="104" cy="1.33333" r="1.33333" fill="#C2C2C2"/>
<circle cx="188" cy="1.33333" r="1.33333" fill="#C2C2C2"/>
<circle cx="104" cy="38.6668" r="1.33333" fill="#C2C2C2"/>
<circle cx="188" cy="38.6668" r="1.33333" fill="#C2C2C2"/>
<circle cx="104" cy="19.9998" r="1.33333" fill="#C2C2C2"/>
<circle cx="188" cy="19.9998" r="1.33333" fill="#C2C2C2"/>
<circle cx="104" cy="57.3333" r="1.33333" fill="#C2C2C2"/>
<circle cx="188" cy="57.3333" r="1.33333" fill="#C2C2C2"/>
<circle cx="104" cy="10.6663" r="1.33333" fill="#C2C2C2"/>
<circle cx="188" cy="10.6663" r="1.33333" fill="#C2C2C2"/>
<circle cx="104" cy="48.0003" r="1.33333" fill="#C2C2C2"/>
<circle cx="188" cy="48.0003" r="1.33333" fill="#C2C2C2"/>
<circle cx="104" cy="29.3328" r="1.33333" fill="#C2C2C2"/>
<circle cx="188" cy="29.3328" r="1.33333" fill="#C2C2C2"/>
<circle cx="104" cy="66.6663" r="1.33333" fill="#C2C2C2"/>
<circle cx="188" cy="66.6663" r="1.33333" fill="#C2C2C2"/>
<circle cx="113.333" cy="1.33333" r="1.33333" fill="#C2C2C2"/>
<circle cx="197.333" cy="1.33333" r="1.33333" fill="#C2C2C2"/>
<circle cx="113.333" cy="38.6668" r="1.33333" fill="#C2C2C2"/>
<circle cx="197.333" cy="38.6668" r="1.33333" fill="#C2C2C2"/>
<circle cx="113.333" cy="19.9998" r="1.33333" fill="#C2C2C2"/>
<circle cx="197.333" cy="19.9998" r="1.33333" fill="#C2C2C2"/>
<circle cx="113.333" cy="57.3333" r="1.33333" fill="#C2C2C2"/>
<circle cx="197.333" cy="57.3333" r="1.33333" fill="#C2C2C2"/>
<circle cx="113.333" cy="10.6663" r="1.33333" fill="#C2C2C2"/>
<circle cx="197.333" cy="10.6663" r="1.33333" fill="#C2C2C2"/>
<circle cx="113.333" cy="48.0003" r="1.33333" fill="#C2C2C2"/>
<circle cx="197.333" cy="48.0003" r="1.33333" fill="#C2C2C2"/>
<circle cx="113.333" cy="29.3328" r="1.33333" fill="#C2C2C2"/>
<circle cx="197.333" cy="29.3328" r="1.33333" fill="#C2C2C2"/>
<circle cx="113.333" cy="66.6663" r="1.33333" fill="#C2C2C2"/>
<circle cx="197.333" cy="66.6663" r="1.33333" fill="#C2C2C2"/>
<circle cx="122.667" cy="1.33333" r="1.33333" fill="#C2C2C2"/>
<circle cx="206.667" cy="1.33333" r="1.33333" fill="#C2C2C2"/>
<circle cx="122.667" cy="38.6668" r="1.33333" fill="#C2C2C2"/>
<circle cx="206.667" cy="38.6668" r="1.33333" fill="#C2C2C2"/>
<circle cx="122.667" cy="19.9998" r="1.33333" fill="#C2C2C2"/>
<circle cx="206.667" cy="19.9998" r="1.33333" fill="#C2C2C2"/>
<circle cx="122.667" cy="57.3333" r="1.33333" fill="#C2C2C2"/>
<circle cx="206.667" cy="57.3333" r="1.33333" fill="#C2C2C2"/>
<circle cx="122.667" cy="10.6663" r="1.33333" fill="#C2C2C2"/>
<circle cx="206.667" cy="10.6663" r="1.33333" fill="#C2C2C2"/>
<circle cx="122.667" cy="48.0003" r="1.33333" fill="#C2C2C2"/>
<circle cx="206.667" cy="48.0003" r="1.33333" fill="#C2C2C2"/>
<circle cx="122.667" cy="29.3328" r="1.33333" fill="#C2C2C2"/>
<circle cx="206.667" cy="29.3328" r="1.33333" fill="#C2C2C2"/>
<circle cx="122.667" cy="66.6663" r="1.33333" fill="#C2C2C2"/>
<circle cx="206.667" cy="66.6663" r="1.33333" fill="#C2C2C2"/>
<circle cx="132" cy="1.33333" r="1.33333" fill="#C2C2C2"/>
<circle cx="132" cy="38.6668" r="1.33333" fill="#C2C2C2"/>
<circle cx="132" cy="19.9998" r="1.33333" fill="#C2C2C2"/>
<circle cx="132" cy="57.3333" r="1.33333" fill="#C2C2C2"/>
<circle cx="132" cy="10.6663" r="1.33333" fill="#C2C2C2"/>
<circle cx="132" cy="48.0003" r="1.33333" fill="#C2C2C2"/>
<circle cx="132" cy="29.3328" r="1.33333" fill="#C2C2C2"/>
<circle cx="132" cy="66.6663" r="1.33333" fill="#C2C2C2"/>
<circle cx="141.333" cy="1.33333" r="1.33333" fill="#C2C2C2"/>
<circle cx="141.333" cy="38.6668" r="1.33333" fill="#C2C2C2"/>
<circle cx="141.333" cy="19.9998" r="1.33333" fill="#C2C2C2"/>
<circle cx="141.333" cy="57.3333" r="1.33333" fill="#C2C2C2"/>
<circle cx="141.333" cy="10.6663" r="1.33333" fill="#C2C2C2"/>
<circle cx="141.333" cy="48.0003" r="1.33333" fill="#C2C2C2"/>
<circle cx="141.333" cy="29.3328" r="1.33333" fill="#C2C2C2"/>
<circle cx="141.333" cy="66.6663" r="1.33333" fill="#C2C2C2"/>
<circle cx="1.33333" cy="1.33333" r="1.33333" fill="#C2C2C2"/>
<circle cx="1.33333" cy="38.6668" r="1.33333" fill="#C2C2C2"/>
<circle cx="1.33333" cy="19.9998" r="1.33333" fill="#C2C2C2"/>
<circle cx="1.33333" cy="57.3333" r="1.33333" fill="#C2C2C2"/>
<circle cx="1.33333" cy="10.6663" r="1.33333" fill="#C2C2C2"/>
<circle cx="1.33333" cy="48.0003" r="1.33333" fill="#C2C2C2"/>
<circle cx="1.33333" cy="29.3328" r="1.33333" fill="#C2C2C2"/>
<circle cx="1.33333" cy="66.6663" r="1.33333" fill="#C2C2C2"/>
<circle cx="10.6666" cy="1.33333" r="1.33333" fill="#C2C2C2"/>
<circle cx="10.6666" cy="38.6668" r="1.33333" fill="#C2C2C2"/>
<circle cx="10.6666" cy="19.9998" r="1.33333" fill="#C2C2C2"/>
<circle cx="10.6666" cy="57.3333" r="1.33333" fill="#C2C2C2"/>
<circle cx="10.6666" cy="10.6663" r="1.33333" fill="#C2C2C2"/>
<circle cx="10.6666" cy="48.0003" r="1.33333" fill="#C2C2C2"/>
<circle cx="10.6666" cy="29.3328" r="1.33333" fill="#C2C2C2"/>
<circle cx="10.6666" cy="66.6663" r="1.33333" fill="#C2C2C2"/>
<circle cx="20" cy="1.33333" r="1.33333" fill="#C2C2C2"/>
<circle cx="20" cy="38.6668" r="1.33333" fill="#C2C2C2"/>
<circle cx="20" cy="19.9998" r="1.33333" fill="#C2C2C2"/>
<circle cx="20" cy="57.3333" r="1.33333" fill="#C2C2C2"/>
<circle cx="20" cy="10.6663" r="1.33333" fill="#C2C2C2"/>
<circle cx="20" cy="48.0003" r="1.33333" fill="#C2C2C2"/>
<circle cx="20" cy="29.3328" r="1.33333" fill="#C2C2C2"/>
<circle cx="20" cy="66.6663" r="1.33333" fill="#C2C2C2"/>
<circle cx="29.3334" cy="1.33333" r="1.33333" fill="#C2C2C2"/>
<circle cx="29.3334" cy="38.6668" r="1.33333" fill="#C2C2C2"/>
<circle cx="29.3334" cy="19.9998" r="1.33333" fill="#C2C2C2"/>
<circle cx="29.3334" cy="57.3333" r="1.33333" fill="#C2C2C2"/>
<circle cx="29.3334" cy="10.6663" r="1.33333" fill="#C2C2C2"/>
<circle cx="29.3334" cy="48.0003" r="1.33333" fill="#C2C2C2"/>
<circle cx="29.3334" cy="29.3328" r="1.33333" fill="#C2C2C2"/>
<circle cx="29.3334" cy="66.6663" r="1.33333" fill="#C2C2C2"/>
<circle cx="38.6667" cy="1.33333" r="1.33333" fill="#C2C2C2"/>
<circle cx="38.6667" cy="38.6668" r="1.33333" fill="#C2C2C2"/>
<circle cx="38.6667" cy="19.9998" r="1.33333" fill="#C2C2C2"/>
<circle cx="38.6667" cy="57.3333" r="1.33333" fill="#C2C2C2"/>
<circle cx="38.6667" cy="10.6663" r="1.33333" fill="#C2C2C2"/>
<circle cx="38.6667" cy="48.0003" r="1.33333" fill="#C2C2C2"/>
<circle cx="38.6667" cy="29.3328" r="1.33333" fill="#C2C2C2"/>
<circle cx="38.6667" cy="66.6663" r="1.33333" fill="#C2C2C2"/>
<circle cx="48" cy="1.33333" r="1.33333" fill="#C2C2C2"/>
<circle cx="48" cy="38.6668" r="1.33333" fill="#C2C2C2"/>
<circle cx="48" cy="19.9998" r="1.33333" fill="#C2C2C2"/>
<circle cx="48" cy="57.3333" r="1.33333" fill="#C2C2C2"/>
<circle cx="48" cy="10.6663" r="1.33333" fill="#C2C2C2"/>
<circle cx="48" cy="48.0003" r="1.33333" fill="#C2C2C2"/>
<circle cx="48" cy="29.3328" r="1.33333" fill="#C2C2C2"/>
<circle cx="48" cy="66.6663" r="1.33333" fill="#C2C2C2"/>
<circle cx="57.3334" cy="1.33333" r="1.33333" fill="#C2C2C2"/>
<circle cx="57.3334" cy="38.6668" r="1.33333" fill="#C2C2C2"/>
<circle cx="57.3334" cy="19.9998" r="1.33333" fill="#C2C2C2"/>
<circle cx="57.3334" cy="57.3333" r="1.33333" fill="#C2C2C2"/>
<circle cx="57.3334" cy="10.6663" r="1.33333" fill="#C2C2C2"/>
<circle cx="57.3334" cy="48.0003" r="1.33333" fill="#C2C2C2"/>
<circle cx="57.3334" cy="29.3328" r="1.33333" fill="#C2C2C2"/>
<circle cx="57.3334" cy="66.6663" r="1.33333" fill="#C2C2C2"/>
<circle cx="66.6667" cy="1.33333" r="1.33333" fill="#C2C2C2"/>
<circle cx="66.6667" cy="38.6668" r="1.33333" fill="#C2C2C2"/>
<circle cx="66.6667" cy="19.9998" r="1.33333" fill="#C2C2C2"/>
<circle cx="66.6667" cy="57.3333" r="1.33333" fill="#C2C2C2"/>
<circle cx="66.6667" cy="10.6663" r="1.33333" fill="#C2C2C2"/>
<circle cx="66.6667" cy="48.0003" r="1.33333" fill="#C2C2C2"/>
<circle cx="66.6667" cy="29.3328" r="1.33333" fill="#C2C2C2"/>
<circle cx="66.6667" cy="66.6663" r="1.33333" fill="#C2C2C2"/>
<circle cx="178.667" cy="1.33333" r="1.33333" fill="#C2C2C2"/>
<circle cx="178.667" cy="38.6668" r="1.33333" fill="#C2C2C2"/>
<circle cx="178.667" cy="19.9998" r="1.33333" fill="#C2C2C2"/>
<circle cx="178.667" cy="57.3333" r="1.33333" fill="#C2C2C2"/>
<circle cx="178.667" cy="10.6663" r="1.33333" fill="#C2C2C2"/>
<circle cx="178.667" cy="48.0003" r="1.33333" fill="#C2C2C2"/>
<circle cx="178.667" cy="29.3328" r="1.33333" fill="#C2C2C2"/>
<circle cx="178.667" cy="66.6663" r="1.33333" fill="#C2C2C2"/>
</svg>
