<svg width="30" height="30" viewBox="0 0 30 30" fill="none" xmlns="http://www.w3.org/2000/svg">
<g clip-path="url(#clip0)">
<path d="M20.3906 7.20703H9.90234L9.60938 7.55859L9.90234 8.96484L10.7812 10.957L12.8906 12.2461L14.1211 13.3594L14.4727 15L15.7031 14.8242V14.2969L15.9375 13.0078L17.1094 12.4219L18.2227 11.8359L19.8047 10.1367L20.3906 7.20703Z" fill="url(#paint0_linear)"/>
<path d="M10.8398 23.2031L9.78516 24.7852L10.6641 25.3125H13.8281L20.2734 25.0781L20.0391 24.1992L18.9258 23.2031L17.4023 22.2656L15.1172 21.6211H14.2383L12.4219 22.4414L10.8398 23.2031Z" fill="url(#paint1_linear)"/>
<path d="M14.7041 17.7207C14.9414 17.7207 15.1338 17.5283 15.1338 17.291C15.1338 17.0537 14.9414 16.8613 14.7041 16.8613C14.4668 16.8613 14.2744 17.0537 14.2744 17.291C14.2744 17.5283 14.4668 17.7207 14.7041 17.7207Z" fill="black"/>
<path d="M15.3916 19.0957C15.6289 19.0957 15.8213 18.9033 15.8213 18.666C15.8213 18.4287 15.6289 18.2363 15.3916 18.2363C15.1543 18.2363 14.9619 18.4287 14.9619 18.666C14.9619 18.9033 15.1543 19.0957 15.3916 19.0957Z" fill="black"/>
<path d="M14.5036 20.392C14.7409 20.392 14.9333 20.1997 14.9333 19.9624C14.9333 19.7251 14.7409 19.5327 14.5036 19.5327C14.2663 19.5327 14.074 19.7251 14.074 19.9624C14.074 20.1997 14.2663 20.392 14.5036 20.392Z" fill="black"/>
<path d="M16.1718 14.5687V13.8777C16.1718 13.4621 16.4442 13.0938 16.8496 12.9611C19.2457 12.1771 20.9598 9.98422 20.9598 7.1167C20.9598 6.874 20.7631 6.67725 20.5203 6.67725H9.47949C9.2368 6.67725 9.04004 6.874 9.04004 7.1167C9.04004 9.8501 10.6534 12.1442 13.1502 12.9611C13.5556 13.0938 13.828 13.4621 13.828 13.8777V14.5687C13.828 15.0372 14.2092 15.4183 14.6776 15.4183H15.3222C15.7907 15.4183 16.1718 15.0372 16.1718 14.5687ZM15.2929 13.8777V14.5394H14.707V13.8777C14.707 13.081 14.1913 12.377 13.4236 12.1258C11.3964 11.4625 10.0894 9.7335 9.93453 7.55621H20.0654C19.9105 9.7335 18.6035 11.4625 16.5764 12.1258C15.8087 12.3769 15.2929 13.081 15.2929 13.8777Z" fill="black"/>
<path d="M22.5238 7.29521V4.87213C23.2014 4.63764 23.6638 4.03184 23.7238 3.33029C24.3719 3.03328 24.8235 2.37885 24.8235 1.62059V0.732422C24.8235 0.328535 24.4949 0 24.091 0H10.1402C9.89753 0 9.70077 0.196758 9.70077 0.439453C9.70077 0.682148 9.89753 0.878906 10.1402 0.878906H23.9446V1.62053C23.9446 2.12707 23.566 2.54584 23.0773 2.61158C22.7916 2.62564 22.8937 2.6216 7.05649 2.6216C6.5104 2.6216 6.05542 2.17699 6.05542 1.62053V0.878906H8.08944C8.33214 0.878906 8.5289 0.682148 8.5289 0.439453C8.5289 0.196758 8.33214 0 8.08944 0H5.90894C5.50505 0 5.17651 0.328535 5.17651 0.732422V1.62053C5.17651 2.26998 5.50757 2.84344 6.00972 3.18135C6.01054 4.04613 6.62876 4.78494 7.47614 4.94092V7.29516C7.47614 10.3824 9.36837 13.1532 12.2168 14.2868V15.6704C9.36837 16.804 7.47614 19.5748 7.47614 22.6621V24.8983C7.03458 24.9783 6.64095 25.2203 6.36562 25.5895C6.09755 25.949 5.97714 26.3811 6.01558 26.8148C5.51015 27.1522 5.17651 27.7275 5.17651 28.3794V29.2676C5.17651 29.6715 5.50505 30 5.90894 30H24.0911C24.495 30 24.8235 29.6715 24.8235 29.2676V28.3795C24.8235 27.6241 24.3755 26.9718 23.7314 26.6732C23.7347 26.2689 23.6009 25.8738 23.3435 25.5489C23.1272 25.2758 22.8429 25.0765 22.5239 24.9667V22.6621C22.5239 21.8981 22.4097 21.1443 22.1845 20.4215C22.1123 20.1898 21.8662 20.0604 21.6341 20.1326C21.4025 20.2048 21.2732 20.4512 21.3453 20.6829C21.5441 21.321 21.6449 21.9869 21.6449 22.6621V24.8689C21.022 24.8689 21.3904 24.8688 20.7677 24.8685C20.3621 23.9002 19.1553 22.1321 15.6273 21.1608C15.217 21.0479 14.7831 21.0479 14.3727 21.1608C10.8442 22.1323 9.63749 23.9007 9.23208 24.8689C8.94597 24.8689 8.65405 24.8689 8.35505 24.8689V22.6621C8.35505 19.8426 10.142 17.322 12.8016 16.3898C12.9778 16.3281 13.0958 16.1618 13.0958 15.9751V13.9821C13.0958 13.7954 12.9778 13.6291 12.8016 13.5673C10.142 12.6352 8.35505 10.1146 8.35505 7.2951V4.97121H21.6449V7.29521C21.6449 10.1147 19.858 12.6353 17.1984 13.5674C17.0222 13.6292 16.9042 13.7955 16.9042 13.9822V15.9752C16.9042 16.1619 17.0222 16.3282 17.1984 16.39C18.5399 16.8602 19.7181 17.7714 20.5158 18.9558C20.6513 19.1571 20.9245 19.2103 21.1257 19.0748C21.3271 18.9392 21.3803 18.6661 21.2447 18.4648C20.4007 17.2116 19.1799 16.2285 17.7831 15.6708V14.2869C20.6316 13.1532 22.5238 10.3825 22.5238 7.29521ZM23.9446 29.1211H6.05542V28.3795C6.05542 27.8259 6.50847 27.3784 7.05649 27.3784H22.9434C23.4863 27.3784 23.9446 27.8197 23.9446 28.3795V29.1211ZM22.6545 26.0945C22.7496 26.2147 22.8116 26.3536 22.8379 26.4995C6.45649 26.4995 7.0211 26.496 6.90081 26.5058C6.92507 26.3667 6.98208 26.2332 7.07021 26.115C7.24417 25.8817 7.51089 25.7479 7.80198 25.7479C7.98802 25.7479 21.682 25.7464 21.978 25.7501C22.2435 25.7616 22.4884 25.8848 22.6545 26.0945ZM14.6059 22.0083C14.8637 21.9373 15.1363 21.9373 15.394 22.0083C18.1806 22.7755 19.3266 24.0623 19.7866 24.8684C19.3535 24.8684 12.7232 24.8689 10.2129 24.8689C10.6728 24.0629 11.8186 22.7757 14.6059 22.0083ZM7.1005 3.76406C7.03323 3.68355 6.98114 3.59326 6.94546 3.49734C6.94769 3.49746 6.94997 3.4974 6.95226 3.49752C7.09411 3.50531 22.7347 3.50057 22.7941 3.50057C22.5683 4.09939 21.9157 4.09992 22.0351 4.08715C21.9671 4.09441 22.2195 4.0923 7.9156 4.0923C7.61202 4.0923 7.33915 4.04965 7.1005 3.76406Z" fill="black"/>
</g>
<defs>
<linearGradient id="paint0_linear" x1="15" y1="7.20703" x2="15" y2="15" gradientUnits="userSpaceOnUse">
<stop stop-color="#FF5B14"/>
<stop offset="1" stop-color="#FF7F47"/>
</linearGradient>
<linearGradient id="paint1_linear" x1="14.0039" y1="21.6797" x2="17.7539" y2="25.1367" gradientUnits="userSpaceOnUse">
<stop stop-color="#FF5B14"/>
<stop offset="1" stop-color="#FF7F47"/>
</linearGradient>
<clipPath id="clip0">
<rect width="30" height="30" fill="white"/>
</clipPath>
</defs>
</svg>
